<?xml version="1.0" encoding="UTF-8" standalone="no"?>
<!DOCTYPE svg PUBLIC "-//W3C//DTD SVG 1.1//EN"
 "http://www.w3.org/Graphics/SVG/1.1/DTD/svg11.dtd">
<!-- Generated by graphviz version 13.1.0 (20250701.0955)
 -->
<!-- Title: apm2000_basic_deinit Pages: 1 -->
<svg width="301pt" height="104pt"
 viewBox="0.00 0.00 301.00 104.00" xmlns="http://www.w3.org/2000/svg" xmlns:xlink="http://www.w3.org/1999/xlink">
<g id="graph0" class="graph" transform="scale(1 1) rotate(0) translate(4 100)">
<title>apm2000_basic_deinit</title>
<!-- Node1 -->
<g id="Node000001" class="node">
<title>Node1</title>
<g id="a_Node000001"><a xlink:title="basic example deinit">
<polygon fill="#999999" stroke="#666666" points="112.75,-58 0,-58 0,-38 112.75,-38 112.75,-58"/>
<text xml:space="preserve" text-anchor="middle" x="56.38" y="-44.5" font-family="Helvetica,sans-Serif" font-size="10.00">apm2000_basic_deinit</text>
</a>
</g>
</g>
<!-- Node2 -->
<g id="Node000002" class="node">
<title>Node2</title>
<g id="a_Node000002"><a xlink:href="group__apm2000__basic__driver.html#ga0f43bdb680599765f922802944eb4a27" target="_top" xlink:title="close the chip">
<polygon fill="white" stroke="#666666" points="263,-96 178.75,-96 178.75,-76 263,-76 263,-96"/>
<text xml:space="preserve" text-anchor="middle" x="220.88" y="-82.5" font-family="Helvetica,sans-Serif" font-size="10.00">apm2000_deinit</text>
</a>
</g>
</g>
<!-- Node1&#45;&gt;Node2 -->
<g id="edge1_Node000001_Node000002" class="edge">
<title>Node1&#45;&gt;Node2</title>
<g id="a_edge1_Node000001_Node000002"><a xlink:title=" ">
<path fill="none" stroke="#63b8ff" d="M102.21,-58.48C122.36,-63.2 146.27,-68.79 167.26,-73.7"/>
<polygon fill="#63b8ff" stroke="#63b8ff" points="166.25,-77.05 176.78,-75.92 167.84,-70.24 166.25,-77.05"/>
</a>
</g>
</g>
<!-- Node3 -->
<g id="Node000003" class="node">
<title>Node3</title>
<g id="a_Node000003"><a xlink:href="group__apm2000__basic__driver.html#ga2f7fcd01dfce3bb806f8c8973941d351" target="_top" xlink:title="get the chip interface">
<polygon fill="white" stroke="#666666" points="279.5,-58 162.25,-58 162.25,-38 279.5,-38 279.5,-58"/>
<text xml:space="preserve" text-anchor="middle" x="220.88" y="-44.5" font-family="Helvetica,sans-Serif" font-size="10.00">apm2000_get_interface</text>
</a>
</g>
</g>
<!-- Node1&#45;&gt;Node3 -->
<g id="edge2_Node000001_Node000003" class="edge">
<title>Node1&#45;&gt;Node3</title>
<g id="a_edge2_Node000001_Node000003"><a xlink:title=" ">
<path fill="none" stroke="#63b8ff" d="M112.84,-48C124.95,-48 137.91,-48 150.48,-48"/>
<polygon fill="#63b8ff" stroke="#63b8ff" points="150.37,-51.5 160.37,-48 150.37,-44.5 150.37,-51.5"/>
</a>
</g>
</g>
<!-- Node4 -->
<g id="Node000004" class="node">
<title>Node4</title>
<g id="a_Node000004"><a xlink:href="group__apm2000__basic__driver.html#ga892d031adb0dd392bfbf66b7ec927a93" target="_top" xlink:title="stop the measurement">
<polygon fill="white" stroke="#666666" points="293,-20 148.75,-20 148.75,0 293,0 293,-20"/>
<text xml:space="preserve" text-anchor="middle" x="220.88" y="-6.5" font-family="Helvetica,sans-Serif" font-size="10.00">apm2000_stop_measurement</text>
</a>
</g>
</g>
<!-- Node1&#45;&gt;Node4 -->
<g id="edge3_Node000001_Node000004" class="edge">
<title>Node1&#45;&gt;Node4</title>
<g id="a_edge3_Node000001_Node000004"><a xlink:title=" ">
<path fill="none" stroke="#63b8ff" d="M102.21,-37.52C121.39,-33.03 143.99,-27.75 164.22,-23.01"/>
<polygon fill="#63b8ff" stroke="#63b8ff" points="164.77,-26.48 173.71,-20.79 163.18,-19.66 164.77,-26.48"/>
</a>
</g>
</g>
</g>
</svg>
