<?xml version="1.0" encoding="UTF-8" standalone="no"?>
<!DOCTYPE svg PUBLIC "-//W3C//DTD SVG 1.1//EN"
 "http://www.w3.org/Graphics/SVG/1.1/DTD/svg11.dtd">
<!-- Generated by graphviz version 13.1.0 (20250701.0955)
 -->
<!-- Title: apm2000_basic_init Pages: 1 -->
<svg width="292pt" height="644pt"
 viewBox="0.00 0.00 292.00 644.00" xmlns="http://www.w3.org/2000/svg" xmlns:xlink="http://www.w3.org/1999/xlink">
<g id="graph0" class="graph" transform="scale(1 1) rotate(0) translate(4 640)">
<title>apm2000_basic_init</title>
<!-- Node1 -->
<g id="Node000001" class="node">
<title>Node1</title>
<g id="a_Node000001"><a xlink:title="basic example init">
<polygon fill="#999999" stroke="#666666" points="102.25,-328 0,-328 0,-308 102.25,-308 102.25,-328"/>
<text xml:space="preserve" text-anchor="middle" x="51.12" y="-314.5" font-family="Helvetica,sans-Serif" font-size="10.00">apm2000_basic_init</text>
</a>
</g>
</g>
<!-- Node2 -->
<g id="Node000002" class="node">
<title>Node2</title>
<g id="a_Node000002"><a xlink:href="group__apm2000__basic__driver.html#ga0f43bdb680599765f922802944eb4a27" target="_top" xlink:title="close the chip">
<polygon fill="white" stroke="#666666" points="253.25,-636 169,-636 169,-616 253.25,-616 253.25,-636"/>
<text xml:space="preserve" text-anchor="middle" x="211.12" y="-622.5" font-family="Helvetica,sans-Serif" font-size="10.00">apm2000_deinit</text>
</a>
</g>
</g>
<!-- Node1&#45;&gt;Node2 -->
<g id="edge1_Node000001_Node000002" class="edge">
<title>Node1&#45;&gt;Node2</title>
<g id="a_edge1_Node000001_Node000002"><a xlink:title=" ">
<path fill="none" stroke="#63b8ff" d="M51.85,-328.5C51.37,-370.31 55.36,-526.65 138.25,-607 143.79,-612.37 150.67,-616.27 157.95,-619.09"/>
<polygon fill="#63b8ff" stroke="#63b8ff" points="156.77,-622.39 167.36,-622.05 158.87,-615.71 156.77,-622.39"/>
</a>
</g>
</g>
<!-- Node3 -->
<g id="Node000003" class="node">
<title>Node3</title>
<g id="a_Node000003"><a xlink:href="group__apm2000__basic__driver.html#gaa7c57a9772a04165176ce374ab63de8d" target="_top" xlink:title="initialize the chip">
<polygon fill="white" stroke="#666666" points="248,-598 174.25,-598 174.25,-578 248,-578 248,-598"/>
<text xml:space="preserve" text-anchor="middle" x="211.12" y="-584.5" font-family="Helvetica,sans-Serif" font-size="10.00">apm2000_init</text>
</a>
</g>
</g>
<!-- Node1&#45;&gt;Node3 -->
<g id="edge2_Node000001_Node000003" class="edge">
<title>Node1&#45;&gt;Node3</title>
<g id="a_edge2_Node000001_Node000003"><a xlink:title=" ">
<path fill="none" stroke="#63b8ff" d="M52.39,-328.43C53.97,-366.68 64.72,-500.59 138.25,-569 145.1,-575.38 153.84,-579.66 162.84,-582.54"/>
<polygon fill="#63b8ff" stroke="#63b8ff" points="161.83,-585.89 172.39,-585 163.58,-579.11 161.83,-585.89"/>
</a>
</g>
</g>
<!-- Node4 -->
<g id="Node000004" class="node">
<title>Node4</title>
<g id="a_Node000004"><a xlink:href="group__apm2000__interface__driver.html#ga1cbb8a3527a6e92fcd9698cf9bfa50c1" target="_top" xlink:title="interface print format data">
<polygon fill="white" stroke="#666666" points="276.12,-560 146.12,-560 146.12,-528 276.12,-528 276.12,-560"/>
<text xml:space="preserve" text-anchor="start" x="154.12" y="-546.5" font-family="Helvetica,sans-Serif" font-size="10.00">apm2000_interface_debug</text>
<text xml:space="preserve" text-anchor="middle" x="211.12" y="-534.5" font-family="Helvetica,sans-Serif" font-size="10.00">_print</text>
</a>
</g>
</g>
<!-- Node1&#45;&gt;Node4 -->
<g id="edge3_Node000001_Node000004" class="edge">
<title>Node1&#45;&gt;Node4</title>
<g id="a_edge3_Node000001_Node000004"><a xlink:title=" ">
<path fill="none" stroke="#63b8ff" d="M53.59,-328.44C58.76,-361.33 79.1,-463.86 138.25,-519 139.01,-519.71 139.79,-520.4 140.59,-521.07"/>
<polygon fill="#63b8ff" stroke="#63b8ff" points="138.38,-523.79 148.58,-526.66 142.4,-518.06 138.38,-523.79"/>
</a>
</g>
</g>
<!-- Node5 -->
<g id="Node000005" class="node">
<title>Node5</title>
<g id="a_Node000005"><a xlink:href="group__apm2000__interface__driver.html#gae5f405973ebd7e1a9c34e1ab7363aa80" target="_top" xlink:title="interface delay ms">
<polygon fill="white" stroke="#666666" points="284,-510 138.25,-510 138.25,-490 284,-490 284,-510"/>
<text xml:space="preserve" text-anchor="middle" x="211.12" y="-496.5" font-family="Helvetica,sans-Serif" font-size="10.00">apm2000_interface_delay_ms</text>
</a>
</g>
</g>
<!-- Node1&#45;&gt;Node5 -->
<g id="edge4_Node000001_Node000005" class="edge">
<title>Node1&#45;&gt;Node5</title>
<g id="a_edge4_Node000001_Node000005"><a xlink:title=" ">
<path fill="none" stroke="#63b8ff" d="M54.47,-328.26C61.62,-357.07 85.88,-439.38 138.25,-481 139.74,-482.19 141.3,-483.3 142.92,-484.34"/>
<polygon fill="#63b8ff" stroke="#63b8ff" points="140.88,-487.22 151.34,-488.88 144.2,-481.06 140.88,-487.22"/>
</a>
</g>
</g>
<!-- Node6 -->
<g id="Node000006" class="node">
<title>Node6</title>
<g id="a_Node000006"><a xlink:href="group__apm2000__interface__driver.html#ga380dcbe10b22ee2bf85ff8e6aa557f8c" target="_top" xlink:title="interface iic bus deinit">
<polygon fill="white" stroke="#666666" points="267.88,-472 154.38,-472 154.38,-440 267.88,-440 267.88,-472"/>
<text xml:space="preserve" text-anchor="start" x="162.38" y="-458.5" font-family="Helvetica,sans-Serif" font-size="10.00">apm2000_interface_iic</text>
<text xml:space="preserve" text-anchor="middle" x="211.12" y="-446.5" font-family="Helvetica,sans-Serif" font-size="10.00">_deinit</text>
</a>
</g>
</g>
<!-- Node1&#45;&gt;Node6 -->
<g id="edge5_Node000001_Node000006" class="edge">
<title>Node1&#45;&gt;Node6</title>
<g id="a_edge5_Node000001_Node000006"><a xlink:title=" ">
<path fill="none" stroke="#63b8ff" d="M57.29,-328.36C68.81,-350.42 98.7,-402.34 138.25,-431 140.06,-432.31 141.93,-433.55 143.87,-434.74"/>
<polygon fill="#63b8ff" stroke="#63b8ff" points="142.15,-437.78 152.61,-439.44 145.46,-431.62 142.15,-437.78"/>
</a>
</g>
</g>
<!-- Node7 -->
<g id="Node000007" class="node">
<title>Node7</title>
<g id="a_Node000007"><a xlink:href="group__apm2000__interface__driver.html#ga7040ef50dbba92b7c14bed3b105fdaf8" target="_top" xlink:title="interface iic bus init">
<polygon fill="white" stroke="#666666" points="276.88,-422 145.38,-422 145.38,-402 276.88,-402 276.88,-422"/>
<text xml:space="preserve" text-anchor="middle" x="211.12" y="-408.5" font-family="Helvetica,sans-Serif" font-size="10.00">apm2000_interface_iic_init</text>
</a>
</g>
</g>
<!-- Node1&#45;&gt;Node7 -->
<g id="edge6_Node000001_Node000007" class="edge">
<title>Node1&#45;&gt;Node7</title>
<g id="a_edge6_Node000001_Node000007"><a xlink:title=" ">
<path fill="none" stroke="#63b8ff" d="M61.08,-328.41C75.63,-344.64 106.02,-375.91 138.25,-393 141.44,-394.69 144.8,-396.24 148.24,-397.66"/>
<polygon fill="#63b8ff" stroke="#63b8ff" points="146.74,-400.84 157.34,-401.01 149.16,-394.27 146.74,-400.84"/>
</a>
</g>
</g>
<!-- Node8 -->
<g id="Node000008" class="node">
<title>Node8</title>
<g id="a_Node000008"><a xlink:href="group__apm2000__interface__driver.html#ga03c7d06be2646f238bce96da08856994" target="_top" xlink:title="interface iic bus read with 16 bits register address">
<polygon fill="white" stroke="#666666" points="267.88,-384 154.38,-384 154.38,-352 267.88,-352 267.88,-384"/>
<text xml:space="preserve" text-anchor="start" x="162.38" y="-370.5" font-family="Helvetica,sans-Serif" font-size="10.00">apm2000_interface_iic</text>
<text xml:space="preserve" text-anchor="middle" x="211.12" y="-358.5" font-family="Helvetica,sans-Serif" font-size="10.00">_read_address16</text>
</a>
</g>
</g>
<!-- Node1&#45;&gt;Node8 -->
<g id="edge7_Node000001_Node000008" class="edge">
<title>Node1&#45;&gt;Node8</title>
<g id="a_edge7_Node000001_Node000008"><a xlink:title=" ">
<path fill="none" stroke="#63b8ff" d="M85.25,-328.48C103.2,-334.16 125.99,-341.38 147.18,-348.08"/>
<polygon fill="#63b8ff" stroke="#63b8ff" points="146.04,-351.39 156.63,-351.07 148.16,-344.72 146.04,-351.39"/>
</a>
</g>
</g>
<!-- Node9 -->
<g id="Node000009" class="node">
<title>Node9</title>
<g id="a_Node000009"><a xlink:href="group__apm2000__interface__driver.html#ga953e542c0d99e63e9afd09c990849f50" target="_top" xlink:title="interface iic bus write with 16 bits register address">
<polygon fill="white" stroke="#666666" points="267.88,-334 154.38,-334 154.38,-302 267.88,-302 267.88,-334"/>
<text xml:space="preserve" text-anchor="start" x="162.38" y="-320.5" font-family="Helvetica,sans-Serif" font-size="10.00">apm2000_interface_iic</text>
<text xml:space="preserve" text-anchor="middle" x="211.12" y="-308.5" font-family="Helvetica,sans-Serif" font-size="10.00">_write_address16</text>
</a>
</g>
</g>
<!-- Node1&#45;&gt;Node9 -->
<g id="edge8_Node000001_Node000009" class="edge">
<title>Node1&#45;&gt;Node9</title>
<g id="a_edge8_Node000001_Node000009"><a xlink:title=" ">
<path fill="none" stroke="#63b8ff" d="M102.55,-318C115.39,-318 129.4,-318 142.93,-318"/>
<polygon fill="#63b8ff" stroke="#63b8ff" points="142.64,-321.5 152.64,-318 142.64,-314.5 142.64,-321.5"/>
</a>
</g>
</g>
<!-- Node10 -->
<g id="Node000010" class="node">
<title>Node10</title>
<g id="a_Node000010"><a xlink:href="group__apm2000__interface__driver.html#ga80c5b6994f785cf1727c6f2377429a06" target="_top" xlink:title="interface uart deinit">
<polygon fill="white" stroke="#666666" points="271.25,-284 151,-284 151,-252 271.25,-252 271.25,-284"/>
<text xml:space="preserve" text-anchor="start" x="159" y="-270.5" font-family="Helvetica,sans-Serif" font-size="10.00">apm2000_interface_uart</text>
<text xml:space="preserve" text-anchor="middle" x="211.12" y="-258.5" font-family="Helvetica,sans-Serif" font-size="10.00">_deinit</text>
</a>
</g>
</g>
<!-- Node1&#45;&gt;Node10 -->
<g id="edge9_Node000001_Node000010" class="edge">
<title>Node1&#45;&gt;Node10</title>
<g id="a_edge9_Node000001_Node000010"><a xlink:title=" ">
<path fill="none" stroke="#63b8ff" d="M85.25,-307.52C103.2,-301.84 125.99,-294.62 147.18,-287.92"/>
<polygon fill="#63b8ff" stroke="#63b8ff" points="148.16,-291.28 156.63,-284.93 146.04,-284.61 148.16,-291.28"/>
</a>
</g>
</g>
<!-- Node11 -->
<g id="Node000011" class="node">
<title>Node11</title>
<g id="a_Node000011"><a xlink:href="group__apm2000__interface__driver.html#ga5476628eeaaf848b2e8b06728c4326f0" target="_top" xlink:title="interface uart flush">
<polygon fill="white" stroke="#666666" points="271.25,-234 151,-234 151,-202 271.25,-202 271.25,-234"/>
<text xml:space="preserve" text-anchor="start" x="159" y="-220.5" font-family="Helvetica,sans-Serif" font-size="10.00">apm2000_interface_uart</text>
<text xml:space="preserve" text-anchor="middle" x="211.12" y="-208.5" font-family="Helvetica,sans-Serif" font-size="10.00">_flush</text>
</a>
</g>
</g>
<!-- Node1&#45;&gt;Node11 -->
<g id="edge10_Node000001_Node000011" class="edge">
<title>Node1&#45;&gt;Node11</title>
<g id="a_edge10_Node000001_Node000011"><a xlink:title=" ">
<path fill="none" stroke="#63b8ff" d="M61.48,-307.62C76.34,-291.71 106.86,-261.2 138.25,-243 140.56,-241.66 142.96,-240.37 145.42,-239.14"/>
<polygon fill="#63b8ff" stroke="#63b8ff" points="146.75,-242.38 154.37,-235.02 143.82,-236.02 146.75,-242.38"/>
</a>
</g>
</g>
<!-- Node12 -->
<g id="Node000012" class="node">
<title>Node12</title>
<g id="a_Node000012"><a xlink:href="group__apm2000__interface__driver.html#gafb378f975ea669debb3563655480e87e" target="_top" xlink:title="interface uart init">
<polygon fill="white" stroke="#666666" points="280.25,-184 142,-184 142,-164 280.25,-164 280.25,-184"/>
<text xml:space="preserve" text-anchor="middle" x="211.12" y="-170.5" font-family="Helvetica,sans-Serif" font-size="10.00">apm2000_interface_uart_init</text>
</a>
</g>
</g>
<!-- Node1&#45;&gt;Node12 -->
<g id="edge11_Node000001_Node000012" class="edge">
<title>Node1&#45;&gt;Node12</title>
<g id="a_edge11_Node000001_Node000012"><a xlink:title=" ">
<path fill="none" stroke="#63b8ff" d="M56.19,-307.75C66.26,-283.75 94.71,-223.63 138.25,-193 140.07,-191.72 141.97,-190.52 143.94,-189.41"/>
<polygon fill="#63b8ff" stroke="#63b8ff" points="145.32,-192.63 152.82,-185.14 142.29,-186.32 145.32,-192.63"/>
</a>
</g>
</g>
<!-- Node13 -->
<g id="Node000013" class="node">
<title>Node13</title>
<g id="a_Node000013"><a xlink:href="group__apm2000__interface__driver.html#ga25a200ab1c14c17c3f537c4b2a17bd1d" target="_top" xlink:title="interface uart read">
<polygon fill="white" stroke="#666666" points="283.25,-146 139,-146 139,-126 283.25,-126 283.25,-146"/>
<text xml:space="preserve" text-anchor="middle" x="211.12" y="-132.5" font-family="Helvetica,sans-Serif" font-size="10.00">apm2000_interface_uart_read</text>
</a>
</g>
</g>
<!-- Node1&#45;&gt;Node13 -->
<g id="edge12_Node000001_Node000013" class="edge">
<title>Node1&#45;&gt;Node13</title>
<g id="a_edge12_Node000001_Node000013"><a xlink:title=" ">
<path fill="none" stroke="#63b8ff" d="M54.47,-307.74C61.62,-278.93 85.88,-196.62 138.25,-155 139.74,-153.81 141.3,-152.7 142.92,-151.66"/>
<polygon fill="#63b8ff" stroke="#63b8ff" points="144.2,-154.94 151.34,-147.12 140.88,-148.78 144.2,-154.94"/>
</a>
</g>
</g>
<!-- Node14 -->
<g id="Node000014" class="node">
<title>Node14</title>
<g id="a_Node000014"><a xlink:href="group__apm2000__interface__driver.html#ga4b5e95d8e155fbbaa505cf1dc019c5a6" target="_top" xlink:title="interface uart write">
<polygon fill="white" stroke="#666666" points="271.25,-108 151,-108 151,-76 271.25,-76 271.25,-108"/>
<text xml:space="preserve" text-anchor="start" x="159" y="-94.5" font-family="Helvetica,sans-Serif" font-size="10.00">apm2000_interface_uart</text>
<text xml:space="preserve" text-anchor="middle" x="211.12" y="-82.5" font-family="Helvetica,sans-Serif" font-size="10.00">_write</text>
</a>
</g>
</g>
<!-- Node1&#45;&gt;Node14 -->
<g id="edge13_Node000001_Node000014" class="edge">
<title>Node1&#45;&gt;Node14</title>
<g id="a_edge13_Node000001_Node000014"><a xlink:title=" ">
<path fill="none" stroke="#63b8ff" d="M53.59,-307.56C58.76,-274.67 79.1,-172.14 138.25,-117 139.17,-116.14 140.12,-115.32 141.09,-114.52"/>
<polygon fill="#63b8ff" stroke="#63b8ff" points="143,-117.46 149.27,-108.92 139.04,-111.68 143,-117.46"/>
</a>
</g>
</g>
<!-- Node15 -->
<g id="Node000015" class="node">
<title>Node15</title>
<g id="a_Node000015"><a xlink:href="group__apm2000__basic__driver.html#ga7e6584a66306ac89d32d6cace3ab9cbb" target="_top" xlink:title="set the chip interface">
<polygon fill="white" stroke="#666666" points="269.75,-58 152.5,-58 152.5,-38 269.75,-38 269.75,-58"/>
<text xml:space="preserve" text-anchor="middle" x="211.12" y="-44.5" font-family="Helvetica,sans-Serif" font-size="10.00">apm2000_set_interface</text>
</a>
</g>
</g>
<!-- Node1&#45;&gt;Node15 -->
<g id="edge14_Node000001_Node000015" class="edge">
<title>Node1&#45;&gt;Node15</title>
<g id="a_edge14_Node000001_Node000015"><a xlink:title=" ">
<path fill="none" stroke="#63b8ff" d="M52.39,-307.57C53.97,-269.32 64.72,-135.41 138.25,-67 139.52,-65.82 140.85,-64.71 142.24,-63.67"/>
<polygon fill="#63b8ff" stroke="#63b8ff" points="144.04,-66.67 150.8,-58.5 140.43,-60.68 144.04,-66.67"/>
</a>
</g>
</g>
<!-- Node16 -->
<g id="Node000016" class="node">
<title>Node16</title>
<g id="a_Node000016"><a xlink:href="group__apm2000__basic__driver.html#gae0ddd2340120966158e9705bbaa1c7de" target="_top" xlink:title="start the measurement">
<polygon fill="white" stroke="#666666" points="283.62,-20 138.62,-20 138.62,0 283.62,0 283.62,-20"/>
<text xml:space="preserve" text-anchor="middle" x="211.12" y="-6.5" font-family="Helvetica,sans-Serif" font-size="10.00">apm2000_start_measurement</text>
</a>
</g>
</g>
<!-- Node1&#45;&gt;Node16 -->
<g id="edge15_Node000001_Node000016" class="edge">
<title>Node1&#45;&gt;Node16</title>
<g id="a_edge15_Node000001_Node000016"><a xlink:title=" ">
<path fill="none" stroke="#63b8ff" d="M51.85,-307.5C51.37,-265.69 55.36,-109.35 138.25,-29 139.02,-28.25 139.82,-27.54 140.64,-26.84"/>
<polygon fill="#63b8ff" stroke="#63b8ff" points="142.57,-29.76 148.93,-21.28 138.68,-23.94 142.57,-29.76"/>
</a>
</g>
</g>
</g>
</svg>
